<?xml version="1.0" standalone="no"?>
<!DOCTYPE svg PUBLIC "-//W3C//DTD SVG 20010904//EN"
 "http://www.w3.org/TR/2001/REC-SVG-20010904/DTD/svg10.dtd">
<svg version="1.0" xmlns="http://www.w3.org/2000/svg"
 width="142.000000pt" height="142.000000pt" viewBox="0 0 142.000000 142.000000"
 preserveAspectRatio="xMidYMid meet">
<metadata>
Created by potrace 1.14, written by Peter Selinger 2001-2017
</metadata>
<g transform="translate(0.000000,142.000000) scale(0.100000,-0.100000)"
fill="#000000" stroke="none">
<path d="M0 710 l0 -710 710 0 710 0 0 710 0 710 -710 0 -710 0 0 -710z m805
585 c346 -73 557 -418 469 -768 -15 -59 -53 -147 -64 -147 -3 0 -23 18 -44 39
l-38 39 21 64 c80 232 -15 483 -230 606 -144 82 -342 83 -486 1 -29 -17 -55
-35 -59 -40 -3 -5 27 -44 66 -86 l72 -75 -41 -42 c-167 -170 -59 -462 178
-483 58 -5 124 7 154 29 16 12 12 18 -38 70 -30 31 -55 59 -55 62 0 3 35 6 77
6 66 0 80 -3 101 -22 23 -23 24 -23 35 -3 42 71 49 182 16 255 -47 103 -150
172 -262 175 -64 1 -69 3 -107 40 -22 22 -40 42 -40 45 0 14 80 30 148 30 161
0 296 -90 369 -246 24 -51 28 -71 28 -154 0 -89 -2 -100 -38 -175 l-38 -80
165 -161 c91 -88 166 -164 166 -168 0 -3 -37 -6 -82 -6 l-82 0 -52 51 -51 50
-54 -36 c-106 -70 -228 -100 -372 -93 -249 14 -458 171 -550 414 -19 51 -22
78 -22 204 0 137 2 149 29 215 16 39 33 74 37 80 6 6 25 -6 50 -32 l41 -41
-20 -54 c-45 -120 -37 -266 20 -388 40 -83 149 -194 231 -233 74 -36 196 -60
262 -52 101 13 230 62 251 97 3 5 -8 24 -25 42 l-32 33 -54 -28 c-81 -41 -155
-54 -234 -41 -202 34 -350 203 -351 403 0 54 30 159 61 208 17 29 19 37 8 46
-8 6 -42 40 -77 76 l-63 65 28 31 c142 153 366 223 578 178z"/>
</g>
</svg>
